# xmcd CD database file
#
# Track frame offsets:
#	150
#	17952
#	39360
#	55195
#
# Disc length: 1017 seconds
#
# Revision: 0
# Processed by: cddbd v1.5PL3 Copyright (c) Steve Scherf et al.
# Submitted via: CDex 1.51
#
DISCID=2a03f704
DTITLE=チェキッ娘 - ありがとう
DYEAR=1999
DGENRE=JPop
TTITLE0=ありがとう
TTITLE1=はじまり -Departure 2000-
TTITLE2=ありがとう (オリジナル・カラオケ)
TTITLE3=はじまり -Departure 2000- (オリジナル・カラオケ)
EXTD=YEAR: 1999
EXTT0=
EXTT1=
EXTT2=
EXTT3=
PLAYORDER=
